<svg width="32" height="33" viewBox="0 0 32 33" fill="none" xmlns="http://www.w3.org/2000/svg">
<rect y="0.5" width="32" height="32" rx="16" fill="white"/>
<path d="M16 6.8999C14.0905 6.8999 12.2591 7.65847 10.9089 9.00873C9.55859 10.359 8.80002 12.1903 8.80002 14.0999V18.4031L7.95163 19.2515C7.78385 19.4193 7.66961 19.6331 7.62332 19.8659C7.57704 20.0986 7.60081 20.3398 7.69161 20.5591C7.78242 20.7783 7.93618 20.9657 8.13347 21.0976C8.33077 21.2294 8.56272 21.2999 8.80002 21.2999H23.2C23.4373 21.2999 23.6693 21.2294 23.8666 21.0976C24.0639 20.9657 24.2176 20.7783 24.3084 20.5591C24.3992 20.3398 24.423 20.0986 24.3767 19.8659C24.3304 19.6331 24.2162 19.4193 24.0484 19.2515L23.2 18.4031V14.0999C23.2 12.1903 22.4415 10.359 21.0912 9.00873C19.7409 7.65847 17.9096 6.8999 16 6.8999V6.8999ZM16 26.0999C15.0452 26.0999 14.1296 25.7206 13.4544 25.0455C12.7793 24.3704 12.4 23.4547 12.4 22.4999H19.6C19.6 23.4547 19.2207 24.3704 18.5456 25.0455C17.8705 25.7206 16.9548 26.0999 16 26.0999Z" fill="#111827"/>
</svg>
