<svg width="24" height="25" viewBox="0 0 24 25" fill="none" xmlns="http://www.w3.org/2000/svg">
<mask id="mask0_59_72" style="mask-type:alpha" maskUnits="userSpaceOnUse" x="0" y="0" width="24" height="25">
<rect y="0.650635" width="24" height="24" fill="#D9D9D9"/>
</mask>
<g mask="url(#mask0_59_72)">
<path d="M6 22.6506C5.16667 22.6506 4.45833 22.359 3.875 21.7756C3.29167 21.1923 3 20.484 3 19.6506V5.65063C3 4.8173 3.29167 4.10897 3.875 3.52563C4.45833 2.9423 5.16667 2.65063 6 2.65063H17V18.6506H6C5.71667 18.6506 5.47917 18.7465 5.2875 18.9381C5.09583 19.1298 5 19.3673 5 19.6506C5 19.934 5.09583 20.1715 5.2875 20.3631C5.47917 20.5548 5.71667 20.6506 6 20.6506H19V4.65063H21V22.6506H6ZM9 16.6506H15V4.65063H9V16.6506ZM7 16.6506V4.65063H6C5.71667 4.65063 5.47917 4.74647 5.2875 4.93813C5.09583 5.1298 5 5.3673 5 5.65063V16.8256C5.16667 16.7756 5.32917 16.734 5.4875 16.7006C5.64583 16.6673 5.81667 16.6506 6 16.6506H7Z" fill="#1C1B1F"/>
</g>
</svg>
