<svg width="389" height="389" viewBox="0 0 389 389" fill="none" xmlns="http://www.w3.org/2000/svg">
<mask id="mask0_60_90" style="mask-type:alpha" maskUnits="userSpaceOnUse" x="0" y="0" width="389" height="389">
<rect width="389" height="389" fill="#D9D9D9"/>
</mask>
<g mask="url(#mask0_60_90)">
<path d="M16.2084 324.167V278.783C16.2084 269.599 18.5721 261.157 23.2995 253.458C28.027 245.759 34.3077 239.883 42.1417 235.831C58.8903 227.457 75.9091 221.176 93.198 216.989C110.487 212.802 128.046 210.708 145.875 210.708C163.704 210.708 181.263 212.802 198.552 216.989C215.841 221.176 232.86 227.457 249.608 235.831C257.442 239.883 263.723 245.759 268.451 253.458C273.178 261.157 275.542 269.599 275.542 278.783V324.167H16.2084ZM307.958 324.167V275.542C307.958 263.656 304.649 252.242 298.031 241.302C291.412 230.361 282.025 220.974 269.869 213.14C283.646 214.761 296.613 217.529 308.769 221.447C320.925 225.364 332.271 230.158 342.806 235.831C352.531 241.234 359.96 247.245 365.093 253.863C370.225 260.482 372.792 267.708 372.792 275.542V324.167H307.958ZM145.875 194.5C128.046 194.5 112.783 188.152 100.087 175.455C87.39 162.759 81.0417 147.496 81.0417 129.667C81.0417 111.838 87.39 96.5748 100.087 83.8783C112.783 71.1818 128.046 64.8335 145.875 64.8335C163.704 64.8335 178.967 71.1818 191.664 83.8783C204.36 96.5748 210.708 111.838 210.708 129.667C210.708 147.496 204.36 162.759 191.664 175.455C178.967 188.152 163.704 194.5 145.875 194.5ZM307.958 129.667C307.958 147.496 301.61 162.759 288.914 175.455C276.217 188.152 260.954 194.5 243.125 194.5C240.154 194.5 236.372 194.162 231.779 193.487C227.187 192.812 223.405 192.069 220.433 191.258C227.727 182.614 233.333 173.024 237.25 162.489C241.167 151.953 243.125 141.013 243.125 129.667C243.125 118.321 241.167 107.38 237.25 96.845C233.333 86.3095 227.727 76.7196 220.433 68.0752C224.215 66.7245 227.997 65.8465 231.779 65.4413C235.561 65.0361 239.343 64.8335 243.125 64.8335C260.954 64.8335 276.217 71.1818 288.914 83.8783C301.61 96.5748 307.958 111.838 307.958 129.667ZM48.625 291.75H243.125V278.783C243.125 275.812 242.382 273.111 240.896 270.679C239.411 268.248 237.452 266.357 235.021 265.006C220.433 257.713 205.711 252.242 190.853 248.595C175.996 244.949 161.003 243.125 145.875 243.125C130.747 243.125 115.755 244.949 100.897 248.595C86.0393 252.242 71.3167 257.713 56.7292 265.006C54.298 266.357 52.3395 268.248 50.8537 270.679C49.3679 273.111 48.625 275.812 48.625 278.783V291.75ZM145.875 162.083C154.79 162.083 162.421 158.909 168.769 152.561C175.118 146.213 178.292 138.581 178.292 129.667C178.292 120.752 175.118 113.121 168.769 106.773C162.421 100.424 154.79 97.2502 145.875 97.2502C136.96 97.2502 129.329 100.424 122.981 106.773C116.633 113.121 113.458 120.752 113.458 129.667C113.458 138.581 116.633 146.213 122.981 152.561C129.329 158.909 136.96 162.083 145.875 162.083Z" fill="#1C1B1F"/>
</g>
</svg>
