<svg width="24" height="25" viewBox="0 0 24 25" fill="none" xmlns="http://www.w3.org/2000/svg">
<mask id="mask0_59_78" style="mask-type:alpha" maskUnits="userSpaceOnUse" x="0" y="0" width="24" height="25">
<rect y="0.650635" width="24" height="24" fill="#D9D9D9"/>
</mask>
<g mask="url(#mask0_59_78)">
<path d="M12 12.6506C10.9 12.6506 9.95833 12.259 9.175 11.4756C8.39167 10.6923 8 9.75063 8 8.65063C8 7.55063 8.39167 6.60897 9.175 5.82563C9.95833 5.0423 10.9 4.65063 12 4.65063C13.1 4.65063 14.0417 5.0423 14.825 5.82563C15.6083 6.60897 16 7.55063 16 8.65063C16 9.75063 15.6083 10.6923 14.825 11.4756C14.0417 12.259 13.1 12.6506 12 12.6506ZM4 20.6506V17.8506C4 17.284 4.14583 16.7631 4.4375 16.2881C4.72917 15.8131 5.11667 15.4506 5.6 15.2006C6.63333 14.684 7.68333 14.2965 8.75 14.0381C9.81667 13.7798 10.9 13.6506 12 13.6506C13.1 13.6506 14.1833 13.7798 15.25 14.0381C16.3167 14.2965 17.3667 14.684 18.4 15.2006C18.8833 15.4506 19.2708 15.8131 19.5625 16.2881C19.8542 16.7631 20 17.284 20 17.8506V20.6506H4ZM6 18.6506H18V17.8506C18 17.6673 17.9542 17.5006 17.8625 17.3506C17.7708 17.2006 17.65 17.084 17.5 17.0006C16.6 16.5506 15.6917 16.2131 14.775 15.9881C13.8583 15.7631 12.9333 15.6506 12 15.6506C11.0667 15.6506 10.1417 15.7631 9.225 15.9881C8.30833 16.2131 7.4 16.5506 6.5 17.0006C6.35 17.084 6.22917 17.2006 6.1375 17.3506C6.04583 17.5006 6 17.6673 6 17.8506V18.6506ZM12 10.6506C12.55 10.6506 13.0208 10.4548 13.4125 10.0631C13.8042 9.67147 14 9.20063 14 8.65063C14 8.10063 13.8042 7.6298 13.4125 7.23813C13.0208 6.84647 12.55 6.65063 12 6.65063C11.45 6.65063 10.9792 6.84647 10.5875 7.23813C10.1958 7.6298 10 8.10063 10 8.65063C10 9.20063 10.1958 9.67147 10.5875 10.0631C10.9792 10.4548 11.45 10.6506 12 10.6506Z" fill="#1C1B1F"/>
</g>
</svg>
