<svg width="24" height="25" viewBox="0 0 24 25" fill="none" xmlns="http://www.w3.org/2000/svg">
<mask id="mask0_59_84" style="mask-type:alpha" maskUnits="userSpaceOnUse" x="0" y="0" width="24" height="25">
<rect y="0.650635" width="24" height="24" fill="#D9D9D9"/>
</mask>
<g mask="url(#mask0_59_84)">
<path d="M5 22.6506C4.45 22.6506 3.97917 22.4548 3.5875 22.0631C3.19583 21.6714 3 21.2006 3 20.6506V16.1006L5.75 12.9756L7.175 14.4006L5.175 16.6506H18.825L16.875 14.4506L18.3 13.0256L21 16.1006V20.6506C21 21.2006 20.8042 21.6714 20.4125 22.0631C20.0208 22.4548 19.55 22.6506 19 22.6506H5ZM5 20.6506H19V18.6506H5V20.6506ZM10.625 15.0256L7.1 11.5006C6.71667 11.1173 6.52917 10.6464 6.5375 10.0881C6.54583 9.52977 6.74167 9.05894 7.125 8.6756L12.025 3.7756C12.4083 3.39227 12.8833 3.19227 13.45 3.1756C14.0167 3.15894 14.4917 3.34227 14.875 3.7256L18.4 7.2506C18.7833 7.63394 18.9833 8.1006 19 8.6506C19.0167 9.2006 18.8333 9.66727 18.45 10.0506L13.45 15.0506C13.0667 15.4339 12.5958 15.6214 12.0375 15.6131C11.4792 15.6048 11.0083 15.4089 10.625 15.0256ZM17 8.6756L13.475 5.1506L8.525 10.1006L12.05 13.6256L17 8.6756Z" fill="#1C1B1F"/>
</g>
</svg>
